# xmcd
#
# Track frame offsets: 
#        150
#        13863
#        32627
#        51259
#        60790
#        78670
#        95535
#        112474
#        126072
#        142581
#        157312
#        172157
#        190839
#        205121
#        221483
#        237552
#        251353
#        264798
#        280457
#        299845
#        338685
#
# Disc length: 4746 seconds
#
# Revision: 1
# Processed by: cddbd v1.5.2PL0 Copyright (c) Steve Scherf et al.
# Submitted via: ExactAudioCopy v0.95b4
#
DISCID=40128815
DTITLE=Jon Spencer Blues Explosion - Acme
DYEAR=1998
DGENRE=Rock
TTITLE0=Calvin
TTITLE1=Magical Colors
TTITLE2=Do You Wanna Get Heavy?
TTITLE3=High Gear
TTITLE4=Talk About The Blues
TTITLE5=I Wanna Make It All Right
TTITLE6=Lovin' Machine
TTITLE7=Bernie
TTITLE8=Blue Green Olga
TTITLE9=Give Me A Chance
TTITLE10=Desperate
TTITLE11=Torture
TTITLE12=Attack
TTITLE13=Right Place, Wrong Time
TTITLE14=The Black Godfather
TTITLE15=New Year (Destroyer)
TTITLE16=Confused (Sansano)
TTITLE17=Hell (Benzel-Waters)
TTITLE18=Bacon (Techno Animal)
TTITLE19=Lap Dance (Thirlwell)
TTITLE20=Blues Power
EXTD=
EXTT0=
EXTT1=
EXTT2=
EXTT3=
EXTT4=
EXTT5=
EXTT6=
EXTT7=
EXTT8=
EXTT9=
EXTT10=
EXTT11=
EXTT12=
EXTT13=
EXTT14=
EXTT15=
EXTT16=
EXTT17=
EXTT18=
EXTT19=
EXTT20=
PLAYORDER=
